<?xml version="1.0" encoding="UTF-8" standalone="no"?>
<!DOCTYPE svg PUBLIC "-//W3C//DTD SVG 1.1//EN" "http://www.w3.org/Graphics/SVG/1.1/DTD/svg11.dtd">
<svg width="100%" height="100%" viewBox="0 0 1920 1080" version="1.1" xmlns="http://www.w3.org/2000/svg" xmlns:xlink="http://www.w3.org/1999/xlink" xml:space="preserve" xmlns:serif="http://www.serif.com/" style="fill-rule:evenodd;clip-rule:evenodd;stroke-linecap:round;stroke-linejoin:round;stroke-miterlimit:1.5;">
    <g id="foreground">
        <g transform="matrix(0.808554,0,0,0.499303,217.511,527.062)">
            <path d="M466.184,547.148C457.681,547.148 450.763,542.626 445.429,533.582C440.096,524.539 437.429,512.444 437.429,497.298L437.429,494.106C437.429,484.029 438.617,475.032 440.994,467.115C443.371,459.198 446.695,453.001 450.966,448.526C455.236,444.051 459.865,441.814 464.85,441.814C473.005,441.814 479.344,446.164 483.866,454.863C488.388,463.563 490.649,476.018 490.649,492.228L490.649,499.457L448.154,499.457C448.309,509.471 450.115,517.56 453.575,523.725C457.034,529.89 461.43,532.972 466.764,532.972C470.551,532.972 473.759,531.721 476.387,529.217C479.015,526.714 481.315,523.396 483.286,519.266L489.837,527.527C484.581,540.608 476.696,547.148 466.184,547.148ZM464.85,456.084C460.522,456.084 456.889,458.634 453.951,463.735C451.014,468.836 449.198,475.987 448.502,485.187L479.924,485.187L479.924,483.873C479.614,475.048 478.146,468.21 475.518,463.36C472.889,458.509 469.334,456.084 464.85,456.084Z" style="fill:rgb(148,168,255);fill-rule:nonzero;"/>
            <path d="M522.998,521.707L538.535,443.692L549.492,443.692L526.998,545.271L518.824,545.271L496.098,443.692L507.055,443.692L522.998,521.707Z" style="fill:rgb(148,168,255);fill-rule:nonzero;"/>
            <path d="M556.101,493.542C556.101,483.591 557.309,474.641 559.725,466.692C562.14,458.744 565.503,452.61 569.812,448.292C574.122,443.973 579.04,441.814 584.566,441.814C593.108,441.814 600.017,446.602 605.292,456.178C610.568,465.754 613.206,478.49 613.206,494.387L613.206,495.608C613.206,505.496 612.036,514.368 609.698,522.223C607.36,530.078 604.017,536.195 599.669,540.577C595.321,544.958 590.325,547.148 584.682,547.148C576.18,547.148 569.29,542.36 564.015,532.784C558.739,523.209 556.101,510.535 556.101,494.763L556.101,493.542ZM566.884,495.608C566.884,506.873 568.498,515.917 571.725,522.739C574.952,529.561 579.272,532.972 584.682,532.972C590.132,532.972 594.461,529.514 597.669,522.598C600.876,515.683 602.48,505.997 602.48,493.542C602.48,482.402 600.847,473.374 597.582,466.458C594.316,459.542 589.977,456.084 584.566,456.084C579.272,456.084 575.001,459.495 571.754,466.317C568.508,473.139 566.884,482.902 566.884,495.608Z" style="fill:rgb(148,168,255);fill-rule:nonzero;"/>
            <rect x="627.583" y="401.07" width="10.725" height="144.201" style="fill:rgb(148,168,255);"/>
            <path d="M676.165,521.707L691.702,443.692L702.659,443.692L680.165,545.271L671.991,545.271L649.265,443.692L660.222,443.692L676.165,521.707Z" style="fill:rgb(148,168,255);fill-rule:nonzero;"/>
            <path d="M724.631,545.271L713.906,545.271L713.906,443.692L724.631,443.692L724.631,545.271ZM713.037,416.748C713.037,413.931 713.568,411.553 714.631,409.613C715.694,407.673 717.269,406.702 719.356,406.702C721.443,406.702 723.027,407.673 724.11,409.613C725.192,411.553 725.733,413.931 725.733,416.748C725.733,419.564 725.192,421.911 724.11,423.789C723.027,425.666 721.443,426.605 719.356,426.605C717.269,426.605 715.694,425.666 714.631,423.789C713.568,421.911 713.037,419.564 713.037,416.748Z" style="fill:rgb(148,168,255);fill-rule:nonzero;"/>
            <path d="M751.937,443.692L752.285,456.459C757.077,446.696 763.339,441.814 771.068,441.814C784.325,441.814 791.011,453.925 791.127,478.146L791.127,545.271L780.402,545.271L780.402,478.052C780.364,470.729 779.33,465.315 777.301,461.811C775.272,458.306 772.112,456.553 767.822,456.553C764.343,456.553 761.29,458.055 758.662,461.059C756.034,464.064 753.985,468.007 752.517,472.888L752.517,545.271L741.792,545.271L741.792,443.692L751.937,443.692Z" style="fill:rgb(148,168,255);fill-rule:nonzero;"/>
            <path d="M804.751,493.636C804.751,477.802 807.012,465.206 811.534,455.849C816.056,446.492 822.047,441.814 829.506,441.814C837.159,441.814 843.13,446.195 847.42,454.957L847.942,443.692L857.739,443.692L857.739,542.83C857.739,555.973 855.333,566.331 850.522,573.904C845.71,581.477 839.246,585.264 831.129,585.264C826.607,585.264 822.182,583.699 817.853,580.57C813.525,577.441 810.22,573.153 807.94,567.708L813.505,557.287C818.105,566.488 823.728,571.088 830.376,571.088C835.593,571.088 839.661,568.71 842.579,563.953C845.497,559.196 846.956,552.499 846.956,543.862L846.956,535.132C842.666,543.143 836.811,547.148 829.39,547.148C822.047,547.148 816.104,542.36 811.563,532.784C807.022,523.209 804.751,510.159 804.751,493.636ZM815.534,495.608C815.534,507.061 816.984,516.058 819.882,522.598C822.781,529.139 826.839,532.409 832.057,532.409C838.821,532.409 843.787,527.433 846.956,517.482L846.956,471.105C843.671,461.404 838.743,456.553 832.173,456.553C826.955,456.553 822.878,459.839 819.94,466.411C817.003,472.982 815.534,482.715 815.534,495.608Z" style="fill:rgb(148,168,255);fill-rule:nonzero;"/>
            <path d="M917.858,419.095L917.858,443.692L929.569,443.692L929.569,457.116L917.858,457.116L917.858,520.111C917.858,524.179 918.38,527.23 919.424,529.264C920.467,531.298 922.245,532.315 924.757,532.315C925.994,532.315 927.695,531.94 929.859,531.189L929.859,545.271C927.037,546.522 924.293,547.148 921.627,547.148C916.834,547.148 913.22,544.801 910.785,540.107C908.351,535.413 907.133,528.748 907.133,520.111L907.133,457.116L895.712,457.116L895.712,443.692L907.133,443.692L907.133,419.095L917.858,419.095Z" style="fill:rgb(148,168,255);fill-rule:nonzero;"/>
            <path d="M952.817,455.99C957.57,446.539 963.754,441.814 971.368,441.814C984.625,441.814 991.311,453.925 991.427,478.146L991.427,545.271L980.702,545.271L980.702,478.052C980.663,470.729 979.629,465.315 977.6,461.811C975.571,458.306 972.412,456.553 968.122,456.553C964.643,456.553 961.59,458.055 958.962,461.059C956.334,464.064 954.285,468.007 952.817,472.888L952.817,545.271L942.091,545.271L942.091,401.07L952.817,401.07L952.817,455.99Z" style="fill:rgb(148,168,255);fill-rule:nonzero;"/>
            <path d="M1033.52,547.148C1025.01,547.148 1018.1,542.626 1012.76,533.582C1007.43,524.539 1004.76,512.444 1004.76,497.298L1004.76,494.106C1004.76,484.029 1005.95,475.032 1008.33,467.115C1010.7,459.198 1014.03,453.001 1018.3,448.526C1022.57,444.051 1027.2,441.814 1032.18,441.814C1040.34,441.814 1046.68,446.164 1051.2,454.863C1055.72,463.563 1057.98,476.018 1057.98,492.228L1057.98,499.457L1015.49,499.457C1015.64,509.471 1017.45,517.56 1020.91,523.725C1024.37,529.89 1028.76,532.972 1034.1,532.972C1037.88,532.972 1041.09,531.721 1043.72,529.217C1046.35,526.714 1048.65,523.396 1050.62,519.266L1057.17,527.527C1051.91,540.608 1044.03,547.148 1033.52,547.148ZM1032.18,456.084C1027.85,456.084 1024.22,458.634 1021.28,463.735C1018.35,468.836 1016.53,475.987 1015.83,485.187L1047.26,485.187L1047.26,483.873C1046.95,475.048 1045.48,468.21 1042.85,463.36C1040.22,458.509 1036.67,456.084 1032.18,456.084Z" style="fill:rgb(148,168,255);fill-rule:nonzero;"/>
            <path d="M1105.06,545.271L1105.06,457.116L1095.14,457.116L1095.14,443.692L1105.06,443.692L1105.06,433.271C1105.06,422.381 1106.85,413.963 1110.45,408.017C1114.04,402.071 1119.12,399.098 1125.69,399.098C1128.17,399.098 1130.62,399.63 1133.06,400.694L1132.48,414.776C1130.66,414.213 1128.73,413.931 1126.68,413.931C1123.2,413.931 1120.52,415.574 1118.62,418.86C1116.73,422.146 1115.78,426.856 1115.78,432.989L1115.78,443.692L1129.17,443.692L1129.17,457.116L1115.78,457.116L1115.78,545.271L1105.06,545.271Z" style="fill:rgb(148,168,255);fill-rule:nonzero;"/>
            <path d="M1179.73,535.225C1175.55,543.174 1169.43,547.148 1161.35,547.148C1154.66,547.148 1149.57,544.003 1146.07,537.713C1142.58,531.423 1140.81,522.113 1140.77,509.784L1140.77,443.692L1151.49,443.692L1151.49,509.314C1151.49,524.711 1155.36,532.409 1163.09,532.409C1171.28,532.409 1176.73,527.465 1179.44,517.576L1179.44,443.692L1190.16,443.692L1190.16,545.271L1179.96,545.271L1179.73,535.225Z" style="fill:rgb(148,168,255);fill-rule:nonzero;"/>
            <path d="M1221,419.095L1221,443.692L1232.71,443.692L1232.71,457.116L1221,457.116L1221,520.111C1221,524.179 1221.53,527.23 1222.57,529.264C1223.61,531.298 1225.39,532.315 1227.9,532.315C1229.14,532.315 1230.84,531.94 1233,531.189L1233,545.271C1230.18,546.522 1227.44,547.148 1224.77,547.148C1219.98,547.148 1216.37,544.801 1213.93,540.107C1211.5,535.413 1210.28,528.748 1210.28,520.111L1210.28,457.116L1198.86,457.116L1198.86,443.692L1210.28,443.692L1210.28,419.095L1221,419.095Z" style="fill:rgb(148,168,255);fill-rule:nonzero;"/>
            <path d="M1283.96,535.225C1279.79,543.174 1273.66,547.148 1265.59,547.148C1258.9,547.148 1253.81,544.003 1250.31,537.713C1246.81,531.423 1245.04,522.113 1245.01,509.784L1245.01,443.692L1255.73,443.692L1255.73,509.314C1255.73,524.711 1259.6,532.409 1267.33,532.409C1275.52,532.409 1280.97,527.465 1283.67,517.576L1283.67,443.692L1294.4,443.692L1294.4,545.271L1284.19,545.271L1283.96,535.225Z" style="fill:rgb(148,168,255);fill-rule:nonzero;"/>
            <path d="M1341.01,459.276C1339.39,458.838 1337.63,458.619 1335.73,458.619C1328.7,458.619 1323.93,463.469 1321.41,473.17L1321.41,545.271L1310.69,545.271L1310.69,443.692L1321.12,443.692L1321.3,455.427C1324.82,446.351 1329.8,441.814 1336.26,441.814C1338.34,441.814 1339.93,442.252 1341.01,443.128L1341.01,459.276Z" style="fill:rgb(148,168,255);fill-rule:nonzero;"/>
            <path d="M1375.79,547.148C1367.29,547.148 1360.37,542.626 1355.04,533.582C1349.71,524.539 1347.04,512.444 1347.04,497.298L1347.04,494.106C1347.04,484.029 1348.23,475.032 1350.6,467.115C1352.98,459.198 1356.31,453.001 1360.58,448.526C1364.85,444.051 1369.48,441.814 1374.46,441.814C1382.62,441.814 1388.95,446.164 1393.48,454.863C1398,463.563 1400.26,476.018 1400.26,492.228L1400.26,499.457L1357.76,499.457C1357.92,509.471 1359.73,517.56 1363.18,523.725C1366.64,529.89 1371.04,532.972 1376.37,532.972C1380.16,532.972 1383.37,531.721 1386,529.217C1388.62,526.714 1390.92,523.396 1392.9,519.266L1399.45,527.527C1394.19,540.608 1386.31,547.148 1375.79,547.148ZM1374.46,456.084C1370.13,456.084 1366.5,458.634 1363.56,463.735C1360.62,468.836 1358.81,475.987 1358.11,485.187L1389.53,485.187L1389.53,483.873C1389.22,475.048 1387.76,468.21 1385.13,463.36C1382.5,458.509 1378.94,456.084 1374.46,456.084Z" style="fill:rgb(148,168,255);fill-rule:nonzero;"/>
        </g>
        <g id="Logo-v4" serif:id="Logo v4" transform="matrix(1.72741,0,0,1.72741,353.47,-222.622)">
            <g id="Ebene3" transform="matrix(0.5,0,0,0.5,189.393,66.8149)">
                <path d="M295.459,778.928C295.459,778.928 255.352,756.822 182.58,661.962C138.143,604.037 118.941,515.153 118.941,515.153" style="fill:none;stroke:rgb(148,168,255);stroke-width:28.95px;"/>
                <path d="M158.145,406.429C158.145,406.429 221.411,373.757 333.876,375.271C425.107,376.499 462.486,392.047 462.486,392.047" style="fill:none;stroke:rgb(148,168,255);stroke-width:28.95px;"/>
                <path d="M542.318,467.663C542.318,467.663 542.399,547.052 492.951,639.171C455.42,709.09 402.432,753.24 402.432,753.24" style="fill:none;stroke:rgb(148,168,255);stroke-width:28.95px;"/>
                <g transform="matrix(1.60019,0,0,1.58945,-221.912,-507.581)">
                    <ellipse cx="345.347" cy="824.645" rx="22.143" ry="22.293" style="fill:none;stroke:rgb(148,168,255);stroke-width:18.15px;"/>
                </g>
                <g transform="matrix(1.60019,0,0,1.58945,-434.51,-885.534)">
                    <ellipse cx="345.347" cy="824.645" rx="22.143" ry="22.293" style="fill:none;stroke:rgb(148,168,255);stroke-width:18.15px;"/>
                </g>
                <g transform="matrix(1.60019,0,0,1.58945,-9.31318,-885.534)">
                    <ellipse cx="345.347" cy="824.645" rx="22.143" ry="22.293" style="fill:none;stroke:rgb(148,168,255);stroke-width:18.15px;"/>
                </g>
            </g>
            <g transform="matrix(1,0,0,1,0,-13.1583)">
                <g transform="matrix(141.667,0,0,141.667,287.313,403.903)">
                    <path d="M0.651,0.02L0.184,0.02C0.173,0.02 0.16,0.019 0.149,0.014C0.128,0.005 0.116,-0.006 0.107,-0.027C0.102,-0.037 0.1,-0.048 0.1,-0.059L0.1,-0.059C0.099,-0.281 0.1,-0.48 0.1,-0.702L0.222,-0.508L0.222,-0.103L0.575,-0.103L0.651,0.02Z" style="fill:rgb(148,168,255);fill-rule:nonzero;"/>
                </g>
                <g transform="matrix(141.667,0,0,141.667,270.534,382.851)">
                    <path d="M0.962,0.169L0.822,0.169L0.629,-0.14L0.535,-0.14L0.459,-0.262L0.759,-0.262C0.785,-0.262 0.802,-0.268 0.818,-0.284C0.833,-0.299 0.839,-0.333 0.84,-0.358C0.84,-0.384 0.834,-0.41 0.818,-0.43C0.803,-0.447 0.788,-0.453 0.759,-0.453L0.34,-0.454L0.265,-0.575L0.759,-0.576C0.832,-0.574 0.884,-0.562 0.918,-0.526C0.954,-0.487 0.962,-0.432 0.962,-0.358C0.962,-0.284 0.955,-0.23 0.918,-0.188C0.88,-0.144 0.843,-0.14 0.77,-0.14L0.962,0.169Z" style="fill:rgb(148,168,255);fill-rule:nonzero;"/>
                </g>
            </g>
        </g>
    </g>
</svg>
