<?xml version="1.0" encoding="UTF-8" standalone="no"?>
<!DOCTYPE svg PUBLIC "-//W3C//DTD SVG 1.1//EN" "http://www.w3.org/Graphics/SVG/1.1/DTD/svg11.dtd">
<svg width="100%" height="100%" viewBox="0 0 1920 1080" version="1.1" xmlns="http://www.w3.org/2000/svg" xmlns:xlink="http://www.w3.org/1999/xlink" xml:space="preserve" xmlns:serif="http://www.serif.com/" style="fill-rule:evenodd;clip-rule:evenodd;stroke-linecap:round;stroke-linejoin:round;stroke-miterlimit:1.5;">
    <g id="foreground">
        <g transform="matrix(1,0,0,1,139.746,326.248)">
            <text x="427.09px" y="473.07px" style="font-family:'Roboto-Regular', 'Roboto';font-size:96px;fill:rgb(148,168,255);">e<tspan x="477.34px 523.137px " y="473.07px 473.07px ">vo</tspan>lving the futur<tspan x="1162.56px " y="473.07px ">e</tspan></text>
        </g>
        <g id="Logo---groß" serif:id="Logo - groß" transform="matrix(1.72319,0,0,1.72319,352.734,-236.114)">
            <g id="Ebene3" transform="matrix(0.5,0,0,0.5,189.393,75.2149)">
                <path d="M299.765,783.674C299.765,783.674 255.352,756.822 182.58,661.962C138.143,604.037 118.941,515.153 118.941,515.153" style="fill:none;stroke:rgb(148,168,255);stroke-width:25px;"/>
                <path d="M151.537,409.572C151.537,409.572 221.411,373.757 333.876,375.271C425.107,376.499 462.486,392.047 462.486,392.047" style="fill:none;stroke:rgb(148,168,255);stroke-width:25px;"/>
                <path d="M542.755,463.949C542.755,463.949 542.399,547.052 492.951,639.171C455.42,709.09 402.432,753.24 402.432,753.24" style="fill:none;stroke:rgb(148,168,255);stroke-width:25px;"/>
                <g transform="matrix(1.60019,0,0,1.58945,-221.912,-507.581)">
                    <ellipse cx="345.347" cy="824.645" rx="22.143" ry="22.293" style="fill:none;stroke:rgb(148,168,255);stroke-width:15.68px;"/>
                </g>
                <g transform="matrix(1.60019,0,0,1.58945,-434.51,-885.534)">
                    <ellipse cx="345.347" cy="824.645" rx="22.143" ry="22.293" style="fill:none;stroke:rgb(148,168,255);stroke-width:15.68px;"/>
                </g>
                <g transform="matrix(1.60019,0,0,1.58945,-9.31318,-885.534)">
                    <ellipse cx="345.347" cy="824.645" rx="22.143" ry="22.293" style="fill:none;stroke:rgb(148,168,255);stroke-width:15.68px;"/>
                </g>
            </g>
            <g transform="matrix(1,0,0,1,0,-1.60827)">
                <g transform="matrix(141.667,0,0,141.667,287.313,403.903)">
                    <path d="M0.849,0.025L0.184,0.025C0.173,0.025 0.163,0.023 0.152,0.018C0.131,0.009 0.116,-0.006 0.107,-0.027C0.102,-0.037 0.1,-0.048 0.1,-0.059C0.099,-0.281 0.099,-0.503 0.099,-0.725L0.222,-0.725L0.222,-0.099L0.774,-0.099L0.849,0.025Z" style="fill:rgb(148,168,255);fill-rule:nonzero;"/>
                </g>
                <g transform="matrix(141.667,0,0,141.667,270.534,382.851)">
                    <path d="M0.872,0.016L0.739,0.016L0.626,-0.159L0.534,-0.159L0.455,-0.284L0.759,-0.284C0.785,-0.284 0.807,-0.289 0.822,-0.305C0.837,-0.32 0.843,-0.342 0.843,-0.368C0.843,-0.393 0.839,-0.41 0.822,-0.43C0.807,-0.447 0.788,-0.45 0.759,-0.451L0.434,-0.451L0.355,-0.576L0.759,-0.576C0.832,-0.575 0.884,-0.562 0.918,-0.526C0.954,-0.487 0.968,-0.441 0.968,-0.368C0.968,-0.293 0.955,-0.251 0.918,-0.209C0.88,-0.166 0.833,-0.16 0.759,-0.159L0.872,0.016Z" style="fill:rgb(148,168,255);fill-rule:nonzero;"/>
                </g>
            </g>
        </g>
    </g>
</svg>
